<svg id="Layer_1" data-name="Layer 1" xmlns="http://www.w3.org/2000/svg" viewBox="0 0 1921.5 359.94"><defs><style>.cls-1{fill:#f4c778;}</style></defs><path class="cls-1" d="M1920.5,806.5c-80,22.4-122.92,34.77-172,42-124.06,18.27-197.74,28.29-283,0-68.51-22.73-56.88-41.13-122-63-90.64-30.44-171-14.21-307,15-156.66,33.64-152,54.59-242,58-43.18,1.63-137.7,4.13-236-45-48.39-24.18-53.95-39-75.2-54.29a199.09,199.09,0,0,0-30.8-16.71c-95-41-299-12-299-12-38.32,5.44-91.19,14.08-154,28l1,321,1920.5,1" transform="translate(0.5 -720.56)"/></svg>