<svg id="Layer_1" data-name="Layer 1" xmlns="http://www.w3.org/2000/svg" viewBox="0 0 1878.9 1639.99"><defs><style>.cls-1{fill:#f2da8a;}</style></defs><circle class="cls-1" cx="1001.1" cy="810.19" r="497.33"/><path class="cls-1" d="M338.53,336.23q45,7.14,90,14.77,22.35,3.79,44.67,7.7c13.59,2.39,27.33,4.57,40.19,9.78.91.37-1.3-.59.12.06l1.11.49c.8.37,1.6.76,2.4,1.15,1.51.76,3,1.57,4.46,2.45A15.48,15.48,0,0,1,525,375c-.09-.11-1-.86-.21-.16.33.27.66.54,1,.82.63.56,1.25,1.15,1.83,1.76A8.45,8.45,0,0,1,529,379c-.07-.13-.77-1.1-.18-.2.23.35.48.7.7,1.06.37.61.69,1.24,1,1.87.5,1,0-.1-.08-.21a6,6,0,0,1,.57,1.67c.21.7.34,1.41.5,2.11.25,1.14,0-.24,0-.32a4,4,0,0,1,.11,1.29c0,.71,0,1.43,0,2.15,0,.36,0,.72-.07,1.07s0,.44,0,.65c-.08.68-.07.58,0-.29a11.1,11.1,0,0,0-.41,2.17c-.16.72-.35,1.45-.55,2.17-.47,1.61-1.05,3.19-1.66,4.76-.41,1,0,0,.06-.15-.15.44-.38.87-.57,1.29-.32.71-.66,1.42-1,2.13-.76,1.55-1.57,3.09-2.39,4.61-3.13,5.73-6.45,11.32-9,17.33-5.63,13-9,27-6.53,41.12,2.27,13.1,10.45,24.23,20.16,32.93A175.78,175.78,0,0,0,562.35,521a198.47,198.47,0,0,0,37.49,15.81q4.73,1.44,9.53,2.63c3,.76,6.65-1,7.38-4.19a6.11,6.11,0,0,0-4.19-7.38A190.06,190.06,0,0,1,593.43,522c-1.55-.57-3.1-1.15-4.63-1.76-.74-.29-1.47-.58-2.19-.88l-.88-.36-.87-.36c.64.27.75.32.35.14C582.1,517.4,579,516,576,514.52a193,193,0,0,1-17.38-9.7q-4.23-2.65-8.32-5.53-1.93-1.37-3.86-2.79l-1.87-1.4c-.06,0-1.18-.91-.41-.31s-.62-.49-.75-.59a88.52,88.52,0,0,1-13.16-12.51c-.25-.29-1.71-2.06-.68-.8-.45-.56-.86-1.15-1.28-1.74-.91-1.28-1.76-2.61-2.55-4s-1.39-2.52-2-3.82l-.18-.4q-.4-.91.09.24a4.93,4.93,0,0,0-.33-.81c-.32-.82-.61-1.65-.88-2.49a42.64,42.64,0,0,1-1.17-4.44c-.15-.75-.27-1.5-.4-2.25-.26-1.53.12,1.35,0-.2,0-.46-.1-.91-.13-1.36a51.85,51.85,0,0,1,.11-9.57,12.78,12.78,0,0,1,.16-1.37c-.33,1.4-.06.38,0,0q.18-1.14.39-2.28c.32-1.68.69-3.34,1.13-5a85.58,85.58,0,0,1,3.09-9.37c.14-.37.29-.73.43-1.09,0,0,.62-1.47.24-.59s.25-.55.26-.59c.19-.43.38-.86.58-1.29q1.06-2.34,2.24-4.65c1.47-2.88,3.09-5.68,4.68-8.5,3.34-6,6.64-12.18,8.38-18.83,1.86-7.15,1.63-14.54-1.71-21.22-3-6-8.57-10.42-14.27-13.68-12.12-6.95-25.88-10.15-39.5-12.63-14.84-2.7-29.71-5.22-44.58-7.76q-44.67-7.65-89.42-14.8l-11.19-1.78a6.56,6.56,0,0,0-4.62.6,6.17,6.17,0,0,0-2.76,3.59c-.65,2.88.88,6.85,4.19,7.38Z" transform="translate(-20.09 -138.98)"/><path class="cls-1" d="M838.94,426.18c-.59-.21-1.18-.42-1.76-.65a5.36,5.36,0,0,1-1-.39c.12.08,1.27.56.29.12-1.2-.54-2.39-1.1-3.55-1.71a58.14,58.14,0,0,1-6.53-4l-1.34-1c-.85-.62.1.1.23.19a10,10,0,0,1-.81-.65c-1-.82-2-1.68-3-2.57a61.19,61.19,0,0,1-5.19-5.37c-.41-.47-.81-.95-1.2-1.43a10.16,10.16,0,0,1-.65-.82c.08.13.81,1.08.18.23-.73-1-1.46-2-2.15-3.05a64.78,64.78,0,0,1-3.86-6.64c-.53-1.06-1-2.12-1.49-3.2-.57-1.27.36.94,0,.1-.12-.33-.26-.64-.38-1-.25-.64-.49-1.29-.72-1.94a59.59,59.59,0,0,1-2-7.17c-.26-1.22-.47-2.44-.67-3.67-.06-.38,0-1.08.05.37,0-.27-.07-.56-.1-.83-.07-.68-.14-1.37-.19-2.06a59.41,59.41,0,0,1,0-7.78c.08-1.21.18-2.41.32-3.61a4.09,4.09,0,0,1,.1-.84c-.46,1.26-.09.64,0,.12.11-.78.23-1.55.37-2.32.45-2.53,1-5,1.68-7.51a143.07,143.07,0,0,1,4.95-14.82c1-2.53,2-5,3.05-7.53.25-.61.54-1.21.77-1.83-.06.16-.52,1.22-.09.22.11-.28.22-.55.34-.82l1.72-4.05c4.2-9.9,8.49-19.88,10.93-30.4,2.53-10.9,3-22.27-.07-33.12-3.41-12.11-10.48-22.73-17.88-32.74-7.75-10.47-16-20.55-24.71-30.27-17-19.11-35.54-36.87-54.15-54.46l-6.89-6.5c-2.29-2.15-6.25-2.43-8.49,0s-2.44,6.19,0,8.49c18.77,17.69,37.54,35.4,55,54.35,8.67,9.39,17,19.09,24.84,29.17-.67-.86-.1-.14,0,0l.8,1.05c.48.62,1,1.25,1.43,1.88q1.41,1.89,2.81,3.8c1.88,2.56,3.72,5.15,5.47,7.8,1.65,2.5,3.23,5.05,4.68,7.68.72,1.3,1.4,2.63,2,4,.29.6.57,1.19.84,1.8,0,0,.66,1.49.29.64s.21.51.27.66a56.47,56.47,0,0,1,2.72,8.72c.15.68.28,1.37.41,2.06.05.28.1.56.14.84,0,.11.28,1.49.08.46s0,0,0,.24.08.7.11,1c.07.69.12,1.39.16,2.08a56.27,56.27,0,0,1-.06,7.46c-.09,1.23-.28,2.46-.37,3.7.14-1.78,0,.22-.11.66q-.16,1-.36,2a103.38,103.38,0,0,1-4.11,14.85c-1.77,5.06-4,9.93-5.88,15,.06-.16.52-1.22.09-.22l-.34.81-.86,2c-.52,1.21-1,2.43-1.55,3.64-1.2,2.85-2.4,5.69-3.55,8.55-2,4.92-3.83,9.89-5.34,15-3.2,10.78-4.65,21.94-3.09,33.13,3,21,17.08,40.66,36.06,50.19a70.71,70.71,0,0,0,7.92,3.36c3,1.06,6.69-1.19,7.38-4.19a6.16,6.16,0,0,0-4.19-7.38Z" transform="translate(-20.09 -138.98)"/><path class="cls-1" d="M1058.78,401.86c18.46-3.93,33.78-16.58,44.07-32,11.71-17.6,16.13-38.88,16.42-59.78a232.93,232.93,0,0,0-2.56-34.8c-.78-5.62-1.73-11.21-2.57-16.81-.21-1.37-.41-2.73-.6-4.1-.22-1.57.11.9,0-.09l-.12-1c-.1-.8-.2-1.61-.29-2.41-.32-2.88-.56-5.77-.68-8.67a85.69,85.69,0,0,1,.06-8.63c.08-1.35.21-2.7.37-4,.13-1.18,0,0,0,.17a4.07,4.07,0,0,1,.15-.95c.12-.79.27-1.58.42-2.37a58.62,58.62,0,0,1,1.88-7c.37-1.13.78-2.24,1.23-3.34.09-.25.21-.49.29-.73-.48,1.37-.28.66-.14.34.27-.61.54-1.21.82-1.8a75.67,75.67,0,0,1,7.35-12.26l1-1.28c.81-1.08-.63.79-.08.1.17-.2.33-.42.5-.62.79-1,1.61-2,2.45-2.94,1.58-1.83,3.24-3.59,4.94-5.31a128.42,128.42,0,0,1,10.83-9.63c.48-.38,1-.78,1.45-1.13-1.17.81.3-.23.61-.46,1.22-.93,2.46-1.84,3.7-2.73q3.27-2.35,6.61-4.6c9.1-6.13,18.5-11.81,27.56-18,2.29-1.56,4.54-3.14,6.77-4.78a6.49,6.49,0,0,0,2.76-3.58,6.06,6.06,0,0,0-.61-4.62c-1.61-2.51-5.5-4.14-8.2-2.16-17.74,13-37.48,23.15-54.07,37.68a104.86,104.86,0,0,0-19.68,22.61,70.48,70.48,0,0,0-10.47,29.37c-1.45,11.91.4,23.94,2.25,35.7.45,2.86.92,5.71,1.35,8.57.18,1.23.36,2.47.53,3.71.06.38.11.77.17,1.16.12.88-.15-1.08,0-.2l.3,2.33c.69,5.52,1.23,11,1.54,16.61s.4,11.23.17,16.84c-.11,2.79-.3,5.58-.59,8.36-.06.61-.12,1.23-.2,1.85,0,.38-.09.76-.14,1.15,0,.21-.16,1.21,0,.35s-.08.52-.08.58c0,.31-.1.62-.14.92-.12.77-.25,1.53-.38,2.29a102.88,102.88,0,0,1-3.93,15.57c-.33,1-.69,2-1.06,2.95-.2.52-.4,1-.61,1.55l-.27.68c-.22.54.57-1.33,0-.07-.86,2-1.79,3.94-2.8,5.85a83.64,83.64,0,0,1-7.12,11.28,3.77,3.77,0,0,0-.44.59c.58-1.2.48-.62.14-.2s-.69.87-1,1.3c-.7.85-1.42,1.69-2.16,2.51-1.47,1.63-3,3.21-4.63,4.7-.75.71-1.53,1.4-2.31,2.07l-1.26,1-.57.46c-.89.72,1.06-.78.07,0-1.7,1.27-3.42,2.48-5.23,3.58a57.13,57.13,0,0,1-5.7,3.1c-.49.24-1,.46-1.48.68l-.66.29c.09,0,1.37-.56.43-.19s-2,.78-3,1.13a58.08,58.08,0,0,1-6.33,1.73,6,6,0,0,0-4.19,7.38,6.15,6.15,0,0,0,7.38,4.19Z" transform="translate(-20.09 -138.98)"/><path class="cls-1" d="M1313.35,479c21.6,7.65,45.84,5,66.28-4.82a85.55,85.55,0,0,0,26.45-19.75c8.4-9.39,14.15-20.47,18.14-32.37,4.06-12.11,6.25-24.73,8.67-37.24,1.21-6.21,2.47-12.41,4-18.54.81-3.18,1.71-6.33,2.73-9.44q.69-2.13,1.47-4.23c.23-.64.47-1.28.72-1.91l.45-1.14c.15-.37.64-2.09.18-.44a25.94,25.94,0,0,1,1.86-4.09c.68-1.41,1.41-2.81,2.17-4.18,1.32-2.38,2.75-4.71,4.29-7q1.18-1.74,2.46-3.42l.43-.56c-1.06,1.43-.32.4-.08.11.5-.64,1-1.27,1.54-1.9q2.58-3.07,5.4-5.93t5.85-5.47c1-.84,2-1.66,3-2.47.54-.43,1.11-.85,1.64-1.3-1.34,1.14-.4.32-.1.08l1-.74a138.15,138.15,0,0,1,13.84-9c4.93-2.81,10-5.35,15.17-7.68q1.85-.83,3.69-1.62l.84-.36c.79-.34-1.42.59-.24.1l2.38-1c2.62-1.07,5.26-2.08,7.91-3.06,10.74-4,21.7-7.3,32.71-10.4q4-1.12,8-2.22A6,6,0,1,0,1553,265.5c-22.31,6.09-44.67,12.77-65.42,23.17-20.12,10.08-38.63,24.33-50.23,43.92-13.27,22.41-15.09,48.71-21.11,73.48a139.42,139.42,0,0,1-5.57,18.12,10.27,10.27,0,0,1-.76,1.88c.83-1.24.16-.36,0,.06s-.33.75-.49,1.12q-1,2.22-2.13,4.4A74.8,74.8,0,0,1,1403,439q-1.07,1.57-2.19,3.09c-.24.32-1,1.23.1-.12-.22.26-.43.55-.64.81-.43.54-.87,1.07-1.31,1.6a78,78,0,0,1-5.66,6c-1.92,1.83-4,3.47-6,5.16,1.5-1.25-.11.06-.44.3-.55.41-1.11.81-1.68,1.21-1.13.79-2.28,1.55-3.44,2.28q-3.37,2.1-6.92,3.89c-1.13.57-2.28,1.11-3.43,1.63l-1,.42c-1.16.51,1.34-.55.16-.07l-1.92.77a85.38,85.38,0,0,1-15.61,4.39c-.56.11-1.13.2-1.7.29s-2.91.34-.79.14c-1.37.13-2.74.32-4.11.43q-3.95.31-7.91.24a77.07,77.07,0,0,1-7.88-.55c-.43-.05-1.63-.31.23,0-.33-.06-.68-.1-1-.15l-1.69-.28c-1.36-.24-2.71-.52-4-.84a71.4,71.4,0,0,1-7.61-2.24c-3-1-6.7,1.18-7.38,4.19a6.14,6.14,0,0,0,4.19,7.38Z" transform="translate(-20.09 -138.98)"/><path class="cls-1" d="M1515.06,622.29c25,13.62,54.06,12.49,81.48,9.48,6.84-.75,13.66-1.65,20.5-2.39,1.85-.2,3.71-.38,5.57-.44.92,0,1.85,0,2.78,0l1,0c.2,0,1.52.15.81,0a20.83,20.83,0,0,1,2.69.59c.2.06,2.4.85,1.2.35a22.43,22.43,0,0,1,3.61,2c.94.62.22.15,0,0l.79.67a20.41,20.41,0,0,1,1.51,1.43c.49.5,1,1,1.41,1.55.14.16.72.89,0,0q.4.52.78,1.08a37.72,37.72,0,0,1,2.13,3.43c.34.64.68,1.28,1,1.93.16.33.32.66.47,1,0,.13.62,1.47.35.79s.15.4.2.55c.13.34.26.68.38,1,.22.6.43,1.2.62,1.8.5,1.55.92,3.11,1.31,4.68.86,3.49,1.54,7,2.27,10.55,1.46,7.07,3.24,14.12,6.69,20.53a46.49,46.49,0,0,0,11.15,13.53c9.44,7.84,21,12.48,32.73,15.59,13.55,3.58,27.58,5.6,41.44,7.52,15.71,2.17,31.49,3.79,47.32,4.77a607.28,607.28,0,0,0,94-1.51c3.87-.36,7.74-.77,11.61-1.2,3.11-.35,6.16-2.51,6-6-.13-3-2.66-6.38-6-6a608.81,608.81,0,0,1-93.24,3.34c-30.32-1.25-60.15-4.29-89.7-10.54a140.64,140.64,0,0,1-16.91-4.57c-1.37-.47-2.74-1-4.08-1.51l-1-.4c.1,0,.83.35.19.08s-1.47-.65-2.2-1a67.64,67.64,0,0,1-7.44-4c-1.17-.75-2.31-1.54-3.43-2.37-.18-.13-.87-.71,0,0l-.61-.48c-.59-.49-1.18-1-1.75-1.52-1-.92-2-1.89-2.92-2.91-.41-.44-.8-.89-1.19-1.35l-.65-.81c-.44-.53.48.69-.16-.23-3.84-5.53-5.59-10.35-7.17-17s-2.49-13.34-4.52-19.81a50.55,50.55,0,0,0-8.89-17,28.07,28.07,0,0,0-16.2-10c-7.46-1.39-14.95-.12-22.4.77-13.63,1.62-27.3,3.28-41,3.39-3.38,0-6.76,0-10.14-.24-1.67-.1-3.34-.22-5-.38l-2.18-.23-1.24-.15-.57-.08a93.17,93.17,0,0,1-19.17-4.89,14.94,14.94,0,0,0-1.45-.55c-.77-.32-1.52-.67-2.28-1-1.52-.71-3-1.48-4.49-2.28-2.75-1.51-6.66-.77-8.21,2.15a6.1,6.1,0,0,0,2.15,8.21Z" transform="translate(-20.09 -138.98)"/><path class="cls-1" d="M1615,895.55l72,16.54c5.14,1.18,10.31,2.3,15.36,3.82,2.42.72,4.79,1.56,7.14,2.5.82.33-1.37-.62-.13,0l.74.34c.55.25,1.1.51,1.64.78,1.14.58,2.25,1.2,3.34,1.87s2,1.5,3,2c-1-.52-.6-.48-.26-.19l.79.65c.48.41,1,.84,1.42,1.28.8.76,1.57,1.56,2.29,2.39.36.41.69.87,1.06,1.27-1.21-1.31.08.13.37.54a39.94,39.94,0,0,1,3.4,5.83c.24.49.44,1,.69,1.5-.82-1.62,0,0,.16.44.42,1.1.81,2.21,1.15,3.33a60.33,60.33,0,0,1,1.64,6.75c.1.56.19,1.11.28,1.68,0,.25.07.5.11.75.21,1.3-.13-1.16,0-.28.13,1.19.27,2.39.36,3.59a92,92,0,0,1-.12,14.38c-1,12.05-3.07,24-.58,36.06,2.08,10,7.74,19.15,15,26.33,7.71,7.67,17.08,13.06,27.07,17.18,10.38,4.28,21.34,6.89,32.24,9.46l35.93,8.46,8.74,2.06c3,.71,6.65-.95,7.39-4.2.7-3.07-.93-6.61-4.2-7.38l-36-8.46c-11.16-2.63-22.43-5-33.31-8.67-2.65-.89-5.26-1.88-7.85-2.93-.88-.35,1.33.59,0,0l-.83-.36-1.85-.85c-1.3-.61-2.58-1.25-3.85-1.92q-3.23-1.71-6.26-3.72c-1-.64-1.91-1.3-2.83-2-.08-.06-.78-.57-.77-.58l.3.24c-.5-.4-1-.8-1.48-1.22a59,59,0,0,1-5.16-4.84q-1.18-1.25-2.28-2.55c-.37-.44-.7-.9-1.08-1.33,1.16,1.33-.15-.22-.42-.6a47.53,47.53,0,0,1-3.65-5.94c-.25-.5-.5-1-.74-1.52-.11-.23-.21-.46-.32-.68-.55-1.17.41,1,.09.22-.44-1.11-.86-2.23-1.22-3.37s-.69-2.37-1-3.57c-.13-.61-.25-1.23-.36-1.85-.07-.38-.12-.77-.19-1.16s0-.31.06.43c0-.23-.06-.46-.08-.69a64.69,64.69,0,0,1-.32-8.69c.15-5.88.89-11.72,1.46-17.57,1-10.12,1-20.3-1.35-30.25-2.25-9.53-7-18.89-14.45-25.36-8.32-7.16-18.77-10.62-29.27-13.16-23.62-5.69-47.36-10.89-71-16.33l-8.76-2c-3-.71-6.64.93-7.38,4.19-.7,3.05.92,6.63,4.19,7.38Z" transform="translate(-20.09 -138.98)"/><path class="cls-1" d="M1598.45,1110.43a33.46,33.46,0,0,0-10.54,12.53,46.48,46.48,0,0,0-4.17,16.33c-.87,10.9,1.89,21.63,6.13,31.58,8.6,20.21,24.61,36.24,42.28,48.78,18.95,13.45,40.4,22.49,61.67,31.55,11.42,4.86,22.84,9.75,33.91,15.38,5.48,2.79,10.88,5.75,16.12,9,2.57,1.59,5.12,3.22,7.6,5,1.12.77,2.22,1.56,3.31,2.37l.81.62c.71.53-1.15-.93-.09-.07.63.51,1.27,1,1.89,1.54a63,63,0,0,1,6.15,5.86c.45.49.9,1,1.33,1.51l.51.61.25.31c.4.51.34.42-.2-.26a14.71,14.71,0,0,1,2.39,3.46,38.71,38.71,0,0,1,1.93,3.52c.16.32.3.64.46,1,.61,1.29-.34-.9,0,0s.57,1.46.82,2.2c.44,1.33.82,2.69,1.13,4.06.15.68.29,1.37.41,2.06a4.86,4.86,0,0,1,.2,1.24c-.11-.83-.14-1-.08-.55,0,.21,0,.41.07.62a52.79,52.79,0,0,1,.17,8.89,19.72,19.72,0,0,1-.4,4.28c.41-1.37.08-.55,0-.09s-.11.72-.16,1.08c-.14.86-.3,1.72-.46,2.58A131.19,131.19,0,0,1,1767,1345c-1,2.84-2,5.66-3.07,8.48s1.23,6.7,4.19,7.38a6.18,6.18,0,0,0,7.39-4.19c4.39-11.77,8.43-23.79,9.36-36.4a53.65,53.65,0,0,0-1.71-18.54,48,48,0,0,0-9-16.94c-7.37-9.18-17.77-15.86-27.82-21.75a317,317,0,0,0-32.86-16.35c-21.76-9.57-44.21-18-64.57-30.38-4.5-2.75-8.9-5.67-13.14-8.8l-1.54-1.16-.77-.58c-.68-.52,1.18.92.15.11s-2.21-1.74-3.29-2.64q-3-2.49-5.9-5.16a118.5,118.5,0,0,1-10.82-11.36c-.4-.48-.8-1-1.19-1.46l-.46-.58-.23-.3c-.4-.5-.31-.39.25.33a9.07,9.07,0,0,0-1.13-1.5c-.4-.55-.81-1.1-1.2-1.66-1.47-2.09-2.86-4.22-4.15-6.42s-2.55-4.54-3.67-6.89c-.27-.57-.53-1.13-.78-1.7-.19-.41-1-2.38-.29-.62-.47-1.22-1-2.43-1.42-3.67-.86-2.38-1.62-4.82-2.24-7.28-.28-1.14-.53-2.29-.74-3.44-.11-.58-.2-1.17-.29-1.75s0-1.61,0,.18c0-.35-.09-.71-.13-1.06a53.26,53.26,0,0,1-.27-7.47c0-1.12.11-2.23.23-3.35,0-.28.09-.58.1-.87-.08,1.68-.11.85,0,.38.1-.63.21-1.26.33-1.88.23-1.13.51-2.25.83-3.35.16-.54.34-1.08.53-1.62.11-.32.23-.64.35-1s.72-1.35-.1.18c.53-1,.94-2,1.5-3s1.41-2,2-3.07c0,.08-.95,1.16-.32.43.22-.25.43-.52.66-.77s.68-.74,1-1.1.82-.79,1.24-1.16l.65-.56c1-.83-1.14.85-.12.09a6.55,6.55,0,0,0,2.76-3.59,6.17,6.17,0,0,0-.61-4.62c-1.6-2.48-5.52-4.16-8.21-2.15Z" transform="translate(-20.09 -138.98)"/><path class="cls-1" d="M1470.22,1412.62a257.25,257.25,0,0,1,51.22,12.72c2,.72,4,1.46,6,2.23l2.8,1.11,1.55.63,1.34.56a105.88,105.88,0,0,1,10.07,4.7,53,53,0,0,1,4.52,2.86c-.94-.65.75.64,1,.88.7.64,1.34,1.33,2,2,1.07,1.18-.34-.61.17.2.22.36.48.7.7,1.07s.35.59.51.89c0,0,.7,1.51.36.7s.34,1.07.32,1c.12.41.2.82.31,1.23.5,1.84,0-.49.12.6a20.59,20.59,0,0,1,.08,2.22,16.08,16.08,0,0,1-.66,4.82,54.08,54.08,0,0,1-2.09,6.58c-.31.82-.63,1.63-1,2.44-.17.42-.34.85-.52,1.27-.1.26-.57,1.37-.13.33-.72,1.68-1.46,3.34-2.23,5-3,6.56-6.47,12.94-10.12,19.18-7.33,12.53-15.54,24.51-23.57,36.6-15.85,23.86-31.68,49.15-36.57,77.87-1.5,8.87-2.1,17.72-.76,26.64a51.31,51.31,0,0,0,9.17,22.24c8.9,12.41,21.38,21.24,32.44,31.54a183.13,183.13,0,0,1,29.21,34.35,163.85,163.85,0,0,1,11,19.75c.41.88.82,1.75,1.21,2.64.16.35.31.7.47,1.06,0,0,.78,1.8.31.69q1.13,2.67,2.13,5.38,2,5.3,3.53,10.72c1,3.63,1.91,7.31,2.65,11,.61,3.08,4.45,5.14,7.38,4.19a6.15,6.15,0,0,0,4.19-7.38c-6.15-31-23-59.08-44.52-81.85a228,228,0,0,0-16.84-15.91c-5.73-4.92-11.56-9.75-16.81-15.19-1.16-1.21-2.29-2.44-3.38-3.71-.61-.7-1.19-1.42-1.77-2.14-1.1-1.38.39.54-.24-.31-.38-.52-.76-1-1.13-1.57q-1.41-2-2.64-4.18c-.45-.79-.88-1.6-1.28-2.43-.21-.41-.4-.83-.6-1.24l-.33-.76c.2.49.23.54.07.15-.67-1.9-1.34-3.76-1.82-5.72a39.07,39.07,0,0,1-1-5.87,70.36,70.36,0,0,1,.1-12.9c.11-1.1.23-2.2.37-3.29-.15,1.21,0,0,0-.3l.21-1.35q.42-2.67,1-5.32,1.11-5.25,2.68-10.39t3.52-10.1c.33-.83.67-1.65,1-2.48.08-.2.45-1.06,0,0,.17-.41.35-.82.53-1.23q1.13-2.58,2.33-5.13c6.17-13,13.83-25.22,21.72-37.22,8.13-12.36,16.57-24.52,24.21-37.19,3.78-6.28,7.37-12.69,10.59-19.29,3.41-7,6.95-14.35,8.77-21.94a30.6,30.6,0,0,0,.32-14.64,24.34,24.34,0,0,0-6.37-10.89c-5.76-5.82-13.62-9-21-12.08a257.82,257.82,0,0,0-50.82-15.44c-4.27-.83-8.56-1.54-12.87-2.16-3.09-.44-6.6.76-7.38,4.19-.65,2.84.87,6.91,4.19,7.39Z" transform="translate(-20.09 -138.98)"/><path class="cls-1" d="M1275.27,1492.14c-9.06-3.43-18.92-6.13-28.68-5.81-10.32.34-20.71,4.82-25.35,14.59-5.49,11.55-2.36,24.67,1.35,36.27a150.16,150.16,0,0,0,16.07,34.48c5.88,9.27,12.72,17.9,18.59,27.17,1.44,2.27,2.82,4.58,4.1,6.94.62,1.14,1.21,2.29,1.78,3.45.28.57.56,1.15.82,1.74.15.32.3.65.44,1s.82,1.48.07.14a34.25,34.25,0,0,1,2.55,7.42c.31,1.16.59,2.33.82,3.51.14.7.25,1.4.37,2.11.07.38,0,1.05,0-.33,0,.42.11.87.15,1.29a49.4,49.4,0,0,1,.08,8.77c-.05.62-.13,1.24-.19,1.85-.14,1.52.16-.93,0,0l-.18,1.15c-.23,1.38-.51,2.75-.83,4.11a79.25,79.25,0,0,1-2.59,8.54c-.49,1.34-1,2.66-1.55,4-.43,1,0,.08,0-.11-.15.37-.32.73-.48,1.1q-.53,1.2-1.08,2.4c-5,10.94-11.17,21.32-16.21,32.26a283.13,283.13,0,0,0-22.37,72.53c-.56,3.42-1,6.85-1.5,10.29a6,6,0,0,0,1.76,4.24,6.13,6.13,0,0,0,4.24,1.76,6.05,6.05,0,0,0,4.24-1.76,7,7,0,0,0,1.76-4.24c.22-1.62-.12.85,0-.15,0-.33.09-.66.14-1,.11-.74.21-1.49.33-2.23.23-1.57.48-3.15.74-4.71.52-3.06,1.08-6.1,1.7-9.14q1.81-9,4.23-17.83t5.39-17.52q1.51-4.38,3.18-8.73c.5-1.33,1-2.65,1.55-4,.31-.78.63-1.55,1-2.33.12-.31.25-.62.38-.93s.69-1.67.17-.42c4.61-11.09,10.39-21.58,15.85-32.26,5.6-11,10.55-22.27,12.05-34.58,1.41-11.63-1.37-23-6.38-33.42-4.66-9.72-11.13-18.43-17.33-27.2-6.66-9.42-12.75-19.1-17.43-29.67-.14-.3-.27-.6-.4-.9,0,0-.64-1.5-.28-.65s-.27-.65-.27-.65c-.12-.31-.25-.61-.37-.92q-.89-2.17-1.68-4.38c-1-2.87-2-5.76-2.86-8.69-.79-2.7-1.53-5.42-2.09-8.17-.13-.67-.26-1.34-.37-2-.07-.37-.12-.74-.18-1.11s-.34-1,0,.25a17.34,17.34,0,0,1-.31-4.26c0-1.26.07-2.49.14-3.75.09-1.44-.19,1,0,.08.05-.28.09-.57.15-.85a22.81,22.81,0,0,1,.55-2.31c.08-.25.65-1.41.55-1.63.13.29-.48,1-.1.24.17-.32.32-.65.49-1a19.33,19.33,0,0,1,1-1.69c.13-.2.27-.39.41-.59.71-1.05-.91,1-.08.1a26,26,0,0,1,2.15-2.18,5.17,5.17,0,0,0,.51-.42c-.75.89-.86.63-.43.33s.91-.62,1.38-.9,1-.55,1.44-.79l.6-.28c.86-.43-.45.2-.53.21,1.06-.2,2.12-.75,3.18-1,.44-.11.89-.2,1.33-.29.29-.06,2-.31.91-.17s.65-.06.94-.08c.59,0,1.18-.08,1.78-.1a45.5,45.5,0,0,1,6.6.28c.16,0,1.39.23.32,0s.17,0,.33,0l1.5.25q1.8.32,3.57.72c2.31.52,4.59,1.15,6.84,1.85s4.24,1.41,6.33,2.2c2.94,1.11,6.71-1.24,7.38-4.19.78-3.42-1-6.19-4.19-7.38Z" transform="translate(-20.09 -138.98)"/><path class="cls-1" d="M948.56,1518.79c-21.24,7.68-29.55,32.14-30.2,52.89a88.44,88.44,0,0,0,21.07,59.82c3.29,3.83,7,7.29,10.35,11,.76.84,1.5,1.71,2.22,2.59l.59.73c.53.67-.9-1.21-.14-.17.36.5.72,1,1.07,1.51a32.07,32.07,0,0,1,1.87,3.14c.26.48.48,1,.71,1.47.36.76-.55-1.45-.12-.27.13.34.25.68.37,1a28,28,0,0,1,.82,3.37c.17.86-.11-1.7,0-.24,0,.3,0,.59.06.88a20.82,20.82,0,0,1,0,2.37,3.46,3.46,0,0,1-.09,1.08c.32-.5.18-1,0-.32s-.27,1.41-.44,2.11a40.13,40.13,0,0,1-1.34,4.15c-.5,1.36.39-.85,0,0-.16.34-.3.68-.46,1-.31.67-.64,1.34-1,2-.69,1.33-1.42,2.63-2.18,3.92-1.47,2.5-3,4.94-4.55,7.4-6.18,9.93-12.44,19.82-19.27,29.31-.83,1.14-1.66,2.28-2.51,3.41l-1.2,1.61-.68.88-.4.53c.48-.62.52-.68.12-.15-1.74,2.21-3.5,4.41-5.32,6.57A170.21,170.21,0,0,1,906,1735.26c-1.92,1.85-3.89,3.65-5.92,5.38-1,.9-2.1,1.77-3.17,2.63-.43.35-.86.68-1.3,1-1.12.89,1.06-.79-.09.07l-1,.75A117.56,117.56,0,0,1,881,1753.8q-3.59,2-7.32,3.65l-1.68.74c-.82.36,1.39-.56.12,0l-.76.31c-1.25.5-2.52,1-3.8,1.43a90.45,90.45,0,0,1-15.73,3.91c-.35.06-1.15.11.39,0l-.8.1c-.68.09-1.35.16-2,.22-1.35.13-2.71.22-4.07.27-3.13.14-6.15,2.67-6,6,.14,3.14,2.64,6.15,6,6,23-1,44.12-11.39,61.61-25.87,18-15,31.77-34.47,44.28-54.08q4.74-7.44,9.36-15c3.21-5.23,6.36-10.82,7.75-16.85a28.93,28.93,0,0,0-1.82-18.66c-2.17-4.89-5.7-9.11-9.31-13-3.39-3.66-7-7.1-10.19-11-.41-.5-.82-1-1.22-1.51s-.14.17.22.29c-.18-.06-.46-.61-.58-.78-.81-1.09-1.59-2.21-2.35-3.35-1.39-2.11-2.69-4.28-3.88-6.51-.58-1.09-1.14-2.19-1.67-3.31-.25-.52-.49-1-.73-1.59-.14-.29-.27-.59-.4-.89l-.23-.53.23.53c-.33.08-2.44-6.68-2.64-7.33-.74-2.42-1.38-4.88-1.9-7.35-.26-1.21-.48-2.43-.69-3.64a8.1,8.1,0,0,0-.29-1.93c.05.1.19,1.51.06.44-.05-.39-.09-.78-.14-1.16a81.28,81.28,0,0,1-.27-15.36c.1-1.23.23-2.45.37-3.68.13-1.06,0,.34-.06.44a5.51,5.51,0,0,0,.18-1.15c.1-.65.2-1.29.32-1.92a73,73,0,0,1,1.76-7.47c.32-1.07.66-2.14,1-3.19.21-.59.43-1.18.65-1.76.12-.29.24-.58.35-.87.21-.54-.57,1.31,0,0a52,52,0,0,1,3.39-6.44c.66-1,1.36-2.06,2.08-3.06.35-.47.49-.2-.26.34a4,4,0,0,0,.57-.71c.43-.51.87-1,1.32-1.51.73-.8,1.51-1.57,2.31-2.3.45-.4.91-.78,1.37-1.17,1-.79-.9.65-.22.17l.88-.63a31.07,31.07,0,0,1,2.92-1.77c.54-.28,1.09-.53,1.63-.79s.31.17-.42.18a4.63,4.63,0,0,0,1-.39c2.94-1.07,5.24-4.13,4.19-7.38-.94-2.9-4.22-5.34-7.38-4.19Z" transform="translate(-20.09 -138.98)"/><path class="cls-1" d="M617.16,1425.58c-11.59,2.19-22,8.65-30.27,17-8.81,8.92-15,19.76-19.63,31.34-5,12.57-8,25.84-11.12,39-.81,3.37-1.63,6.74-2.52,10.09-.38,1.42-.77,2.84-1.23,4.25-.23.7-.48,1.39-.74,2.08-.06.19-.45,1.06,0,.09-.18.42-.37.83-.58,1.24-.32.65-.67,1.29-1,1.9-.17.27-1.13,1.64-.46.78a15.12,15.12,0,0,1-1.47,1.62c-.27.26-.54.5-.81.74-1.25,1.13.88-.52-.52.4a36.12,36.12,0,0,1-3.82,2.21c-.66.33-1.34.63-2,.93-.18.08-1.06.46-.1,0-.43.19-.87.36-1.31.54A281.45,281.45,0,0,1,500,1552.54q-10,2.45-20.17,4.17c-1.64.27-3.28.54-4.93.79l-2.47.36-1.24.17-.61.09c.46-.07.47-.07,0,0-3.4.43-6.81.82-10.23,1.14a286.83,286.83,0,0,1-41.66.82c-14.28-.74-28.5-2.39-42.7-4-28.36-3.22-56.93-6.21-85.36-1.92-3.47.52-6.92,1.17-10.35,1.92a6,6,0,0,0-4.19,7.38,6.14,6.14,0,0,0,7.38,4.19q5.31-1.17,10.67-2l1.26-.18c.11,0,1.17-.15.29,0l2.52-.31c1.78-.2,3.57-.37,5.36-.52,7-.58,14-.76,20.93-.67,14.21.21,28.38,1.56,42.51,3.11,28.06,3.09,56,6.63,84.32,4.89a290.68,290.68,0,0,0,81.67-16.89c3.32-1.22,6.63-2.49,9.9-3.83a55,55,0,0,0,9.13-4.36c6.17-4,9.73-9.87,11.94-16.75,2-6.36,3.4-13,5-19.47s3.17-13.16,5.08-19.66c.95-3.23,2-6.45,3.11-9.62.56-1.54,1.13-3.06,1.74-4.58l.47-1.13c.39-1-.3.68.11-.26s.73-1.69,1.12-2.52a85.8,85.8,0,0,1,8.61-14.73c.18-.25,1.37-1.81.6-.82.42-.54.84-1.07,1.28-1.59,1-1.17,2-2.32,3-3.43a65.05,65.05,0,0,1,6.05-5.69l.78-.63c.68-.58-.75.54,0,0,.53-.39,1.07-.79,1.61-1.17,1.15-.81,2.33-1.58,3.54-2.3s2.29-1.31,3.48-1.9c.59-.29,1.19-.56,1.79-.84.23-.1,1.06-.42-.07,0l1.15-.46a47,47,0,0,1,7.9-2.21c3.09-.58,5.13-4.47,4.19-7.38a6.16,6.16,0,0,0-7.38-4.19Z" transform="translate(-20.09 -138.98)"/><path class="cls-1" d="M547.44,1274.43l-40.1-5.91-20.37-3c-5.32-.79-10.66-1.56-15.89-2.86a64.71,64.71,0,0,1-7.34-2.24c-.27-.11-2.11-.92-.82-.32-.59-.27-1.18-.53-1.76-.81-1.15-.57-2.27-1.19-3.36-1.87-.55-.34-1.08-.69-1.6-1.06l-.58-.43c-.72-.49.72.64.07.06-1-.92-2.06-1.8-3-2.81-.39-.42-.76-.84-1.12-1.28-.12-.14-.73-1-.27-.32s0-.07-.1-.16c-.75-1.11-1.48-2.22-2.13-3.4s-1.07-2.1-1.57-3.18,0-.06.05.13l-.36-.89c-.23-.59-.45-1.19-.66-1.79-.87-2.44-1.6-4.92-2.29-7.41-1.37-5-2.59-10-4.38-14.76a49.86,49.86,0,0,0-8.39-14.84,47.48,47.48,0,0,0-12-10c-8.9-5.34-19.12-8.3-29.21-10.41-12.37-2.59-24.93-4.47-37.45-6.17-13.54-1.85-27.13-3.37-40.75-4.47a719.48,719.48,0,0,0-80.29-2c-3.28.11-6.56.23-9.84.38-3.13.14-6.15,2.66-6,6,.14,3.13,2.64,6.15,6,6a721.32,721.32,0,0,1,80,.87q20,1.33,39.83,3.78l4.73.59,2.2.29.3,0,1.57.22q5,.69,10.06,1.46,9.9,1.5,19.74,3.28c4.93.9,9.85,1.89,14.7,3.18,2.48.66,5,1.4,7.37,2.25,1.13.39,2.25.81,3.36,1.25l.88.36c.82.32-.92-.42-.13-.05s1.3.57,1.93.88a55.31,55.31,0,0,1,6.31,3.49c1,.62,1.9,1.29,2.83,2-1.07-.79.24.21.57.49s.92.79,1.37,1.21c.9.82,1.76,1.69,2.58,2.6.36.4.7.81,1.05,1.22.12.15.73.93.25.3s.26.37.36.51a39.56,39.56,0,0,1,3.77,6.64l.29.66c.36.81-.35-.92-.05-.09.2.53.42,1,.61,1.58.48,1.29.91,2.6,1.32,3.91.75,2.42,1.42,4.86,2.08,7.31a114.06,114.06,0,0,0,5.09,15.49,37.89,37.89,0,0,0,9.07,13.12,44.91,44.91,0,0,0,14.85,8.7c10.64,4,22.35,4.92,33.51,6.56l40.09,5.91,9.87,1.45c3.09.46,6.6-.77,7.38-4.19.65-2.85-.87-6.89-4.19-7.38Z" transform="translate(-20.09 -138.98)"/><path class="cls-1" d="M429.13,942.83C414,940.8,399.7,946.61,385,946a30.24,30.24,0,0,1-9.65-1.85l-1.17-.45c.26.11.81.4-.28-.13-.74-.36-1.48-.72-2.21-1.11a43,43,0,0,1-4.18-2.62,26.86,26.86,0,0,1-2.95-2.33c-1.36-1.16-2.67-2.38-3.95-3.63-2.43-2.38-4.74-4.88-7.05-7.39-9.12-9.9-18.93-18.79-30.33-26a144.63,144.63,0,0,0-36.09-16.39c-25.27-7.58-52.81-8.33-78.3-1.33-15.13,4.15-29.16,11.36-44,16.27a178.54,178.54,0,0,1-21.22,5.59,160.36,160.36,0,0,1-20.83,2.8,185.49,185.49,0,0,1-21.61.3c-3.65-.16-7.31-.43-11-.81s-6.15-.71-10-1.35a182.38,182.38,0,0,1-21.39-4.89A176.59,176.59,0,0,1,39,893.55q-5-2.19-9.92-4.69A6.13,6.13,0,0,0,20.87,891c-1.57,2.68-.75,6.73,2.15,8.21a190.76,190.76,0,0,0,131.46,15.25c15.2-3.72,29.3-10.13,43.88-15.63a143.85,143.85,0,0,1,20.73-6.26c1.48-.31,3-.6,4.46-.87l2.38-.4,1.2-.18c.14,0,1.66-.23,1-.15.57-.07,2.8-.33,4-.45,1.71-.16,3.42-.3,5.13-.4a137.52,137.52,0,0,1,19.68.28c1.52.12,3,.28,4.53.46l1.21.14c1,.13-.81-.11.21,0s1.8.26,2.7.41q4.78.76,9.53,1.86A140,140,0,0,1,293.71,899l2.26.88,1.12.46c.12.05,1.06.44.25.1,1.49.63,3,1.29,4.43,2q4.39,2.05,8.63,4.41t8.29,5c2.57,1.68,5.77,4,7.78,5.5a132.18,132.18,0,0,1,14,12.78c9.69,10.2,18.94,21.69,32.89,26.06,7.26,2.27,15,2.19,22.52,1.31,4-.47,8-1.1,12-1.71,3.63-.56,6.33-1,10.21-1.22a55.61,55.61,0,0,1,11,.3c3.22.43,6-3.07,6-6,0-3.6-2.77-5.57-6-6Z" transform="translate(-20.09 -138.98)"/><path class="cls-1" d="M489.61,719.39c-17.1-24.08-35.55-49.29-61.62-64.34a91,91,0,0,0-45-12.21c-17-.1-33.75,4-50.12,8.13s-32.59,8.52-49.32,9.06c-16.45.53-32.23-2.24-47.93-7.26-32.1-10.26-60.58-29-88.13-48.06-27.77-19.17-55.42-38.83-86.73-51.87q-5.61-2.34-11.34-4.34c-3.06-1.08-6.56,1.21-7.38,4.19a6.12,6.12,0,0,0,4.19,7.38C77.31,571,105,589.87,132,608.54c27.65,19.14,55.38,38.29,86.77,50.87a173.42,173.42,0,0,0,48.89,12.15c17.09,1.54,34-.78,50.62-4.62,16.31-3.76,32.41-8.79,49-11.06,14.93-2,30.15-1.18,44.46,4.5l1.2.49c-.69-.29.29.13.35.16l2.34,1.08q2.47,1.18,4.87,2.51a104.47,104.47,0,0,1,9,5.67,125.84,125.84,0,0,1,15.63,13.23c10.51,10.34,19.36,21.63,27.81,33.24,2.1,2.88,4.17,5.78,6.24,8.69,1.87,2.63,5.24,3.89,8.21,2.15,2.61-1.53,4-5.55,2.15-8.21Z" transform="translate(-20.09 -138.98)"/></svg>